<svg width="107" height="75" viewBox="0 0 107 75" fill="none" xmlns="http://www.w3.org/2000/svg">
<mask id="path-1-inside-1" fill="white">
<rect x="4" width="99" height="54" rx="1"/>
</mask>
<rect x="4" width="99" height="54" rx="1" stroke="#476687" stroke-width="10" mask="url(#path-1-inside-1)"/>
<mask id="path-2-inside-2" fill="white">
<path fill-rule="evenodd" clip-rule="evenodd" d="M39.2333 57.1667H0V70.0001C0 72.7615 2.23858 75.0001 5 75.0001H102C104.761 75.0001 107 72.7615 107 70.0001V57.1667H64.2V60.7334H39.2333V57.1667Z"/>
</mask>
<path d="M0 57.1667V52.1667H-5V57.1667H0ZM39.2333 57.1667H44.2333V52.1667H39.2333V57.1667ZM107 57.1667H112V52.1667H107V57.1667ZM64.2 57.1667V52.1667H59.2V57.1667H64.2ZM64.2 60.7334V65.7334H69.2V60.7334H64.2ZM39.2333 60.7334H34.2333V65.7334H39.2333V60.7334ZM0 62.1667H39.2333V52.1667H0V62.1667ZM5 70.0001V57.1667H-5V70.0001H5ZM5 70.0001H5H-5C-5 75.5229 -0.522849 80.0001 5 80.0001V70.0001ZM102 70.0001H5V80.0001H102V70.0001ZM102 70.0001V70.0001V80.0001C107.523 80.0001 112 75.5229 112 70.0001H102ZM102 57.1667V70.0001H112V57.1667H102ZM64.2 62.1667H107V52.1667H64.2V62.1667ZM59.2 57.1667V60.7334H69.2V57.1667H59.2ZM64.2 55.7334H39.2333V65.7334H64.2V55.7334ZM44.2333 60.7334V57.1667H34.2333V60.7334H44.2333Z" fill="#476687" mask="url(#path-2-inside-2)"/>
</svg>
