<svg width="100" height="112" viewBox="0 0 100 112" fill="none" xmlns="http://www.w3.org/2000/svg">
<path fill-rule="evenodd" clip-rule="evenodd" d="M44.8366 12.9173C44.5072 13.1498 43.2389 13.4262 42.8035 13.4909C42.0962 13.6444 41.3547 13.9074 40.6698 14.1596C40.0945 14.3714 39.2651 14.7628 38.7023 14.8741L36.9411 15.7816C33.9009 17.0966 28.9092 21.3173 26.8617 24.0649L24.2828 27.5953C24.2568 27.6761 22.1743 31.5143 22.0684 31.6409L20.6438 35.173C19.9778 37.023 19.9374 37.1738 19.9374 39.3398L19.9419 63.5892C19.923 65.8889 20.1842 65.8664 20.7363 67.7021L22.3233 71.2657L24.3609 74.4334C25.4748 76.094 27.9038 78.5508 29.6246 79.8317C30.6479 80.5938 31.6218 81.2499 32.8093 81.9501C33.9386 82.416 35.7365 83.3001 36.6907 83.7902C38.2741 84.2606 39.3566 84.7013 41.037 85.0774C44.1302 85.7686 43.2308 85.2794 43.8663 86.3736C44.9345 88.2119 47.4442 87.7057 49.5976 87.7057C51.4997 87.7057 53.4161 87.7559 55.3092 87.6545C55.8604 87.3709 56.0722 87.3996 56.5641 86.9427C56.9142 86.6169 57.2292 86.2928 57.3729 85.6438C57.5596 84.801 57.4581 82.5596 57.4581 81.5776C57.4716 80.5516 57.424 80.4196 57.0075 79.6082C55.4277 77.9996 53.4502 78.5194 50.3005 78.4826C47.7683 78.4529 44.8851 77.9601 43.7936 79.9789C43.238 79.9206 42.7254 79.8227 42.1734 79.6836C41.9158 79.619 41.6626 79.5534 41.4355 79.4906C41.379 79.4753 41.0729 79.3838 41.0289 79.3649L40.6357 79.1387C40.0218 79.1782 37.2661 78.0741 36.8056 77.7016C36.258 77.5203 35.6342 77.1514 35.127 76.8623L30.8983 73.6291C30.0949 72.8293 29.4486 71.9945 28.6632 70.9335C28.3113 70.4587 27.9424 69.8842 27.6668 69.3986C27.297 68.746 27.1399 68.2416 26.7593 67.6392C26.5556 66.9579 26.1768 66.291 25.9102 65.5603C25.7764 65.195 25.6624 64.8153 25.5386 64.4643C25.3743 63.9994 25.1535 63.7319 25.4416 63.406C25.8716 62.6215 26.7037 62.03 26.9559 60.1387C27.0995 59.0624 26.9775 47.8304 27.0053 45.87C27.0367 43.6511 27.2773 41.6629 25.9183 39.8308C25.3743 39.0983 25.4461 39.198 25.7737 38.1729C26.8949 34.6641 28.3733 31.4901 30.4881 28.6293C31.5455 27.1985 32.5975 25.9625 33.8569 24.7965C34.6935 24.0227 35.4843 23.2238 36.4366 22.5838C45.9685 16.1748 55.6826 16.5042 64.6347 23.6403L68.1507 27.1904C69.5734 28.8699 70.9629 31.0044 71.9198 33.0053C72.4458 34.1048 72.9036 35.1048 73.3318 36.2654C73.5481 36.8525 73.7581 37.4593 73.9475 38.0418C74.9295 41.0686 72.953 39.4278 73.0364 43.7382C73.0957 46.8188 73.0957 50.1167 73.0445 53.1982C73.0005 55.84 72.6271 59.9699 73.7429 62.0964C74.8748 64.2525 76.8038 65.2937 79.9751 65.2937L80.1277 61.46L80.1223 39.741C80.107 38.4835 80.2381 37.5104 79.8602 36.3974C79.6142 35.6721 78.9581 34.165 78.95 33.6462L77.9348 31.6561C77.6475 31.043 77.2768 30.3743 77.0183 29.7478C76.3774 28.6473 75.7383 27.5872 75.0489 26.5477C74.3174 25.4455 73.5508 24.6412 72.8623 23.6484C72.4862 23.4581 72.6989 23.4832 72.3614 23.1026C72.1729 22.8908 72.0015 22.7849 71.8067 22.5946C71.6182 22.4088 71.4943 22.2481 71.3112 22.0282C70.6748 21.2661 69.0627 19.969 68.7539 19.54C67.7369 18.8578 67.0071 18.172 65.8931 17.4467C65.3716 17.1074 64.93 16.813 64.3438 16.4629C64.0279 16.2735 63.0836 15.9064 62.9193 15.6389C62.4929 15.5276 61.2084 15.0025 60.8871 14.6524C60.4778 14.6533 59.3387 14.1641 58.8243 13.9864C58.0254 13.7099 57.442 13.5447 56.6575 13.3607L54.7922 12.99C53.0454 12.7135 51.6128 12.5143 49.7296 12.5529C48.8795 12.5699 47.999 12.5807 47.1947 12.6785C46.5269 12.7593 45.4668 13.0331 44.8348 12.92L44.8366 12.9173ZM49.998 -0.000445148C63.8044 -0.000445148 76.3047 5.59625 85.3528 14.6443C94.4008 23.6924 99.9975 36.1927 99.9975 49.9991C99.9975 62.1036 95.6925 73.2045 88.5286 81.8576C81.458 90.3985 71.5949 96.5491 60.3323 98.917L50.2816 111.106L45.9955 99.8272C33.4054 98.8282 22.133 93.1722 13.9018 84.5837C5.28993 75.5976 -0.00247192 63.4123 -0.00247192 49.9982C-0.00247192 36.1918 5.59423 23.6915 14.6423 14.6434C23.6904 5.59535 36.1907 -0.00134277 49.9971 -0.00134277L49.998 -0.000445148ZM81.3467 18.6495C73.3237 10.6265 62.2407 5.66447 49.998 5.66447C37.7553 5.66447 26.6714 10.6265 18.6493 18.6495C10.6263 26.6725 5.66424 37.7555 5.66424 49.9982C5.66424 61.9061 10.3498 72.7099 17.9743 80.6665C25.6436 88.6688 36.276 93.8023 48.1004 94.2978L49.9702 94.3759L52.1119 100.012L57.2723 93.7539L58.2759 93.5645C68.6228 91.6121 77.7041 86.0567 84.1679 78.2492C90.5159 70.5817 94.3308 60.7374 94.3308 49.9982C94.3308 37.7555 89.3687 26.6716 81.3458 18.6495H81.3467ZM14.9152 37.4736C14.3156 37.76 14.0588 37.7887 13.4969 38.1406C13.0059 38.4476 12.6846 38.7779 12.3533 39.1396C11.8121 39.7303 10.9306 40.6342 10.892 41.7885L10.6927 43.6017V45.6007V47.5998V49.5988V51.5978V53.5968V55.5958V57.5948V59.5938C10.7879 60.5579 10.8893 61.1476 11.2924 61.9321C11.6801 62.687 12.1101 63.021 12.4252 63.591C12.9126 63.7543 12.6181 63.5111 12.8838 63.9653C13.6522 64.4186 14.145 64.8342 15.1728 65.1061C16.065 65.3422 17.2786 65.3314 18.2902 65.2722L18.2552 37.26L16.6898 37.2645L14.917 37.4763L14.9152 37.4736ZM84.7217 37.4063L83.9749 37.2869L81.7605 37.2555C81.8825 41.9223 81.6734 46.6617 81.7667 51.3294C81.8125 53.6156 81.782 55.9674 81.7605 58.2582C81.7497 59.4161 81.7955 60.5588 81.7703 61.7221C81.7578 62.302 81.7587 62.8746 81.7703 63.4545C81.7766 63.7723 81.7712 64.0784 81.7748 64.3925C81.7757 64.494 81.7766 64.695 81.7865 64.7902C81.8745 65.5989 81.6689 64.2166 81.8278 65.037L81.8933 65.2686C85.3025 65.5505 87.35 64.4177 88.6578 62.1404C89.7942 60.162 89.384 55.4082 89.384 52.7952C89.384 49.6912 89.5923 45.8054 89.3696 42.7975C89.1686 40.0723 87.1561 37.918 84.7199 37.4054L84.7217 37.4063Z" fill="#476687"/>
</svg>
