<svg width="89" height="81" viewBox="0 0 89 81" fill="none" xmlns="http://www.w3.org/2000/svg">
<mask id="path-1-inside-1" fill="white">
<path fill-rule="evenodd" clip-rule="evenodd" d="M19 18C7.84248 21.7223 0 30.532 0 40.807C0 51.082 7.84248 59.8916 19 63.614V18Z"/>
</mask>
<path d="M19 18H24V11.061L17.4177 13.257L19 18ZM19 63.614L17.4177 68.357L24 70.553V63.614H19ZM5 40.807C5 33.3003 10.8126 26.0024 20.5823 22.743L17.4177 13.257C4.87238 17.4423 -5 27.7636 -5 40.807H5ZM20.5823 58.8709C10.8126 55.6116 5 48.3136 5 40.807H-5C-5 53.8503 4.87238 64.1717 17.4177 68.357L20.5823 58.8709ZM24 63.614V18H14V63.614H24Z" fill="#526F8E" mask="url(#path-1-inside-1)"/>
<mask id="path-3-inside-2" fill="white">
<path fill-rule="evenodd" clip-rule="evenodd" d="M70 19C81.1575 22.7223 89 31.532 89 41.807C89 52.082 81.1575 60.8916 70 64.614V19Z"/>
</mask>
<path d="M70 19H65V12.061L71.5823 14.257L70 19ZM70 64.614L71.5823 69.357L65 71.553V64.614H70ZM84 41.807C84 34.3003 78.1874 27.0024 68.4177 23.743L71.5823 14.257C84.1276 18.4423 94 28.7636 94 41.807H84ZM68.4177 59.8709C78.1874 56.6116 84 49.3136 84 41.807H94C94 54.8503 84.1276 65.1717 71.5823 69.357L68.4177 59.8709ZM65 64.614V19H75V64.614H65Z" fill="#526F8E" mask="url(#path-3-inside-2)"/>
<path d="M16 24C23.6 -1.03692 59.7 -6.81409 73 24" stroke="#526F8E" stroke-width="5"/>
<path d="M43 75.2827C59.9412 82.9249 69.3529 73.3724 75 60" stroke="#526F8E" stroke-width="5"/>
<rect x="39" y="73" width="7" height="4" rx="2" stroke="#526F8E" stroke-width="4"/>
</svg>
