<svg width="147" height="24" viewBox="0 0 147 24" fill="none" xmlns="http://www.w3.org/2000/svg">
<rect width="147" height="24" fill="white" fill-opacity="0.01"/>
<path d="M91.6404 15.0564C91.6404 12.4859 90.2604 11.2684 86.4183 10.4296C84.2808 9.96961 83.7667 9.48258 83.7667 8.80615C83.7667 7.96738 84.5243 7.58858 85.9313 7.58858C87.6359 7.58858 89.3134 8.10267 90.9098 8.83321V5.45107C89.8005 4.88287 88.0688 4.44995 86.0395 4.44995C82.2245 4.44995 80.2493 6.10044 80.2493 8.83321C80.2493 10.9978 81.2504 12.7294 85.2008 13.487C87.5547 13.9741 88.0418 14.3529 88.0418 15.1375C88.0418 15.8951 87.5547 16.3822 85.8772 16.3822C83.9561 16.3822 81.6563 15.7328 80.1681 14.8399V18.3844C81.3586 18.9796 82.928 19.629 85.8501 19.629C89.9899 19.629 91.6404 17.7891 91.6404 15.0564Z" fill="#0052CC"/>
<path d="M133.255 4.66644V19.4126H136.394V8.18387L137.719 11.1602L142.157 19.4126H146.107V4.66644H142.969V14.1906L141.778 11.4307L138.206 4.66644H133.255Z" fill="#0052CC"/>
<path d="M113.314 4.66644H109.878V19.3855H113.314V4.66644Z" fill="#0052CC"/>
<path d="M105.9 15.0564C105.9 12.4859 104.52 11.2684 100.678 10.4296C98.54 9.96961 98.0259 9.48258 98.0259 8.80615C98.0259 7.96738 98.7835 7.58858 100.19 7.58858C101.895 7.58858 103.573 8.10267 105.169 8.83321V5.45107C104.06 4.88287 102.328 4.44995 100.299 4.44995C96.4837 4.44995 94.5085 6.10044 94.5085 8.83321C94.5085 10.9978 95.5096 12.7294 99.4599 13.487C101.814 13.9741 102.301 14.3529 102.301 15.1375C102.301 15.8951 101.814 16.3822 100.136 16.3822C98.2153 16.3822 95.9154 15.7328 94.4273 14.8399V18.3844C95.6178 18.9796 97.1871 19.629 100.109 19.629C104.276 19.629 105.9 17.7891 105.9 15.0564Z" fill="#0052CC"/>
<path d="M53.6258 4.66644V19.4126H60.6606L61.77 16.2198H57.062V4.66644H53.6258Z" fill="#0052CC"/>
<path d="M39.6917 4.66655V7.8593H43.5067V19.4127H46.943V7.8593H51.0286V4.66655H39.6917Z" fill="#0052CC"/>
<path d="M34.6859 4.66635H30.1674L25.0265 19.4125H28.9498L29.6803 16.9232C30.5462 17.1668 31.4661 17.3291 32.4402 17.3291C33.3872 17.3291 34.3071 17.1938 35.2 16.9232L35.9306 19.4125H39.8538L34.6859 4.66635ZM32.4131 14.2716C31.7638 14.2716 31.1144 14.1634 30.5191 14.0011L32.4131 7.56147L34.3071 14.0011C33.7119 14.1634 33.0896 14.2716 32.4131 14.2716Z" fill="#0052CC"/>
<path d="M72.836 4.66641H68.3175L63.1766 19.3855H67.0999L67.8305 16.8962C68.6963 17.1398 69.6162 17.3021 70.5903 17.3021C71.5373 17.3021 72.4572 17.1668 73.3501 16.8962L74.0807 19.3855H78.004L72.836 4.66641ZM70.5632 14.2717C69.9139 14.2717 69.2645 14.1635 68.6692 14.0011L70.5632 7.56153L72.4572 14.0011C71.862 14.1635 71.2126 14.2717 70.5632 14.2717Z" fill="#0052CC"/>
<path d="M125.652 4.66641H121.133L115.992 19.3855H119.916L120.646 16.8962C121.512 17.1398 122.432 17.3021 123.406 17.3021C124.353 17.3021 125.273 17.1668 126.166 16.8962L126.896 19.3855H130.82L125.652 4.66641ZM123.406 14.2717C122.757 14.2717 122.107 14.1635 121.512 14.0011L123.406 7.56153L125.3 14.0011C124.678 14.1635 124.055 14.2717 123.406 14.2717Z" fill="#0052CC"/>
<path d="M5.32726 9.77982C5.05669 9.48219 4.65083 9.50924 4.46143 9.86099L0.0511182 18.6546C-0.111225 19.0063 0.13229 19.4122 0.51109 19.4122H6.62601C6.81541 19.4122 7.00481 19.3039 7.08598 19.1145C8.43884 16.3818 7.62712 12.242 5.32726 9.77982Z" fill="url(#paint0_linear)"/>
<path d="M8.54766 1.77093C6.08546 5.66716 6.2478 9.96925 7.87123 13.2161C9.49466 16.463 10.7393 18.9252 10.8205 19.1146C10.9016 19.304 11.091 19.4122 11.2804 19.4122H17.3954C17.7742 19.4122 18.0447 19.0063 17.8553 18.6546C17.8553 18.6546 9.62995 2.20385 9.41349 1.79799C9.25115 1.41919 8.79117 1.39213 8.54766 1.77093Z" fill="#2684FF"/>
<defs>
<linearGradient id="paint0_linear" x1="7.72764" y1="11.1243" x2="3.09245" y2="19.1527" gradientUnits="userSpaceOnUse">
<stop stop-color="#0052CC"/>
<stop offset="0.9228" stop-color="#2684FF"/>
</linearGradient>
</defs>
</svg>
