<svg width="101" height="101" viewBox="0 0 101 101" fill="none" xmlns="http://www.w3.org/2000/svg">
<path d="M50.0006 0C63.8076 0 76.3073 5.59621 85.3564 14.6453C94.4044 23.6933 100.002 36.1941 100.002 50.0011C100.002 60.0245 97.0518 69.3579 91.9744 77.1836L87.221 73.0804C91.3854 66.3797 93.7904 58.4714 93.7904 50.0023C93.7904 37.9104 88.8897 26.9626 80.9655 19.0384C73.0413 11.1143 62.0947 6.21361 50.0017 6.21361C37.9098 6.21361 26.9621 11.1143 19.0379 19.0384C11.1137 26.9626 6.21305 37.9104 6.21305 50.0023C6.21305 62.0942 11.1137 73.0419 19.0379 80.9661C26.9621 88.8903 37.9098 93.7909 50.0017 93.7909C61.7424 93.7909 72.4035 89.1701 80.2666 81.6492L85.0165 85.6957C75.9958 94.5454 63.6365 100.003 50.0028 100.003C36.1958 100.003 23.6961 94.4072 14.647 85.3581C5.59905 76.3101 0.00170898 63.8093 0.00170898 50.0023C0.00170898 36.1953 5.59792 23.6955 14.647 14.6464C23.695 5.59848 36.1958 0.00113284 50.0028 0.00113284L50.0006 0Z" fill="#476687"/>
<path fill-rule="evenodd" clip-rule="evenodd" d="M49.1634 33.0358C58.0392 32.0186 65.09 38.9073 65.9906 46.733C67.0237 55.7107 60.1927 62.9371 52.3841 63.7697C43.2568 64.7428 36.0542 58.0183 35.2307 50.0465C34.2655 40.7108 41.0908 33.9614 49.1634 33.037V33.0358ZM64.3423 64.0926C66.4222 65.2616 66.5026 65.9062 66.702 67.1127C67.0837 69.435 70.267 71.3382 72.0886 73.0986L84.7163 84.1562C87.8781 86.7697 91.3536 91.6454 95.2925 88.0588C96.3007 87.1413 96.9748 85.5077 96.5454 83.6952C96.1274 81.9279 92.6043 79.1174 91.0183 77.8509L81.4243 69.4418C79.1745 67.695 74.0971 62.3106 71.9255 61.9164C70.7394 61.7011 70.4075 62.0886 69.5986 61.4859C68.996 61.0373 68.5723 60.5185 67.9968 60.1367C68.3265 58.7365 69.8932 57.0316 70.8142 53.0576C72.0977 47.5214 71.1008 41.8074 68.0829 37.1458C63.862 30.6263 56.5937 26.9265 48.0951 27.7659C44.3987 28.1307 40.4122 29.873 37.7354 32.1058L35.0687 34.5233C29.0238 41.7745 27.8921 52.1219 33.5382 60.1424L35.8662 62.9031C37.7104 64.7371 38.9905 65.7703 41.5338 67.0175C47.9082 70.1442 55.334 69.733 61.372 66.1158C62.6113 65.3738 63.3193 64.6805 64.3423 64.0926Z" fill="#476687"/>
<path fill-rule="evenodd" clip-rule="evenodd" d="M48.7442 61.3782L52.5279 61.4529L52.6219 35.4328L48.6582 35.358C48.4542 37.9477 48.3851 60.0845 48.7442 61.3782V61.3782Z" fill="#476687"/>
<path fill-rule="evenodd" clip-rule="evenodd" d="M64.5224 80.6455C63.9979 81.7908 61.4332 83.3983 65.1353 84.3578C67.9425 85.0862 72.5135 87.2579 72.6675 84.5493C72.6992 83.9953 70.5457 77.3897 69.6746 76.9627C68.1849 76.8245 67.6411 77.7262 66.9218 78.4886L61.1964 73.7998C60.3219 72.9241 60.9698 72.2274 60.5031 70.9654C59.8585 70.8952 59.4145 71.1478 58.7959 71.3846C57.9146 71.7222 57.8829 71.7437 57.8376 72.7961C57.7583 74.6562 58.4368 75.294 59.4598 76.121L64.5224 80.6444V80.6455Z" fill="#476687"/>
<path fill-rule="evenodd" clip-rule="evenodd" d="M44.9255 60.1129L44.9243 36.6371C43.5933 37.2171 40.9526 38.7544 40.8495 40.2893L40.8484 56.1808C40.8756 58.2369 44.1246 59.9361 44.9255 60.1117V60.1129Z" fill="#476687"/>
<path fill-rule="evenodd" clip-rule="evenodd" d="M56.3037 60.1321C57.2247 59.8704 58.1151 59.168 58.7846 58.6435C59.5051 58.0794 60.3388 57.6511 60.3717 56.3767L60.374 40.4819C60.3581 39.5892 60.2913 39.2561 58.8231 38.1822C57.961 37.5512 57.3787 37.1649 56.3694 36.6552L56.3037 60.1321V60.1321Z" fill="#476687"/>
<path fill-rule="evenodd" clip-rule="evenodd" d="M35.7495 18.992C36.6558 19.3556 39.7155 22.3169 40.854 23.2469C42.1477 24.3027 41.4261 23.6706 41.9597 25.2792C42.8546 25.3642 44.1177 24.8454 44.7057 24.4761C44.8847 22.3022 44.0101 22.0926 41.8838 20.2687L38.0548 16.8045C39.174 14.6736 41.0398 14.1095 36.7283 12.8883C35.4765 12.5337 31.1955 10.9636 30.2518 11.8948C29.2889 12.8452 31.1524 16.7716 31.592 18.0257C32.8845 21.7119 33.656 20.7626 35.7483 18.9931L35.7495 18.992Z" fill="#476687"/>
<path fill-rule="evenodd" clip-rule="evenodd" d="M49.646 20.7693C49.9938 22.2069 48.9584 24.7785 52.511 23.8121L52.7137 20.7456C54.0301 20.7014 55.5719 20.9789 55.6852 19.5266C55.7565 18.6158 53.7152 14.9454 53.2054 13.8387C52.7387 12.8236 52.3807 11.4767 51.2377 11.5492C49.6743 11.6466 46.712 19.061 46.6938 19.3669C46.5908 21.1647 48.2628 20.7025 49.6449 20.7705L49.646 20.7693Z" fill="#476687"/>
<path fill-rule="evenodd" clip-rule="evenodd" d="M44.6808 72.2432C44.0373 71.8387 42.7935 71.3267 41.8997 71.483C41.5961 73.3296 41.8056 77.0351 41.8045 79.0787C41.8034 80.872 41.0761 85.3988 42.8841 85.8633C45.4228 86.5146 44.7646 81.8372 44.7646 80.0575C44.7635 77.8416 44.9696 74.2993 44.6808 72.242V72.2432Z" fill="#476687"/>
<path fill-rule="evenodd" clip-rule="evenodd" d="M60.5416 25.7573C60.92 24.3038 60.8158 13.3652 60.4487 12.05C56.8588 10.1989 57.8523 15.9854 57.8523 18.566C57.8523 20.2007 57.8579 21.8354 57.8455 23.4701C57.8364 24.6879 57.6518 24.9042 58.6011 25.2792C59.1392 25.4911 59.9605 25.8173 60.5416 25.7573V25.7573Z" fill="#476687"/>
<path fill-rule="evenodd" clip-rule="evenodd" d="M52.6367 83.9749L52.6321 74.1826C52.631 72.8391 52.614 72.7383 51.2206 72.7473C49.1645 72.7609 49.8069 73.5029 49.8091 79.6656C49.8091 80.65 49.6856 84.3986 49.9394 85.0635C50.4288 86.347 52.6367 86.4558 52.6367 83.9737V83.9749Z" fill="#476687"/>
</svg>
